<svg viewBox="100 100 200 200" xmlns="http://www.w3.org/2000/svg"><path fill="#fff" d="m115 204c0-2 0-4 0-6 .4-3.1.8-6.1 1.3-9.2 3.6-20.2 12.4-37.5 27.8-51.3 12.3-11 26.4-17.9 42.7-20.4 3.8-.6 7.5-1.4 11.2-2.2h5c1.6.4 3.3 1.1 4.9 1.2 13.5.3 25.9 4.3 37.6 10.9 9.2 5.1 17 11.5 23.6 19.7 7.1 8.8 12.5 18.3 15.6 29.1 1.6 5.7 2.8 11.5 4.2 17.2v20c-.4.5-1 .9-1.1 1.4-2.2 18.2-9.9 33.8-22.2 47-13 13.9-29.1 22.5-48.1 25.4-3.9.6-7.8 1.5-11.6 2.2-2 0-4 0-6 0-1.3-.4-2.6-1-3.9-1.2-7.2-1.3-14.5-1.8-21.5-3.9-20.7-6.3-36.5-19.3-47.4-37.9-6.8-11.7-11.3-24.2-11.1-38.1.2-1.3-.6-2.6-1-3.9zm121.2 25c.2-1.4 1.2-3.3.7-4.4-3.1-6.2-5.6-13.1-10.1-18.1-9.2-10.1-19.6-19.1-29.5-28.5-5-4.7-6.1-12.9-2.2-18 3.2-4.2 8.1-5.7 13.2-4.1 6.2 1.9 8.5 4.7 8.6 10.8.1 3 .7 4.8 4.2 4.6 3.9-.2 3.7-3.1 3.2-5.4-.5-2.7-1.7-5.3-3-7.7-3-5.6-12.9-11.3-17.4-10.2-8.3 1.9-15.1 6.3-17.5 14.5-2.3 7.8.8 14.9 6.9 20.4 8.5 7.8 17.5 15.3 25.4 23.7 6.2 6.6 11.3 14.4 17.5 22.4zm-49.6 4.3c-6-1-6.5-.9-5.6 4.6.6 3.6 2.5 7.3 4.6 10.4 5.4 8 16.7 9.5 24.9 3.6 6.7-4.9 12.5-16.4 5.2-24.8-6.5-7.5-13.8-14.3-20.8-21.3-8.9-8.9-19.6-16.4-23.9-29.1-.3-.8-1.5-1.3-3.3-2.6.2 3.4.1 5.7.5 7.9 2 10 9.8 15.9 16.4 22.5 7.4 7.4 15.2 14.3 22.6 21.7 4 3.9 5.5 9.1 4.2 14.5-1.2 5.1-5.8 8-11.5 8.2-5.3.2-9.9-2.6-11.5-7.4-.9-2.7-1.2-5.5-1.8-8.2z"/></svg>